<svg width="141" height="79" viewBox="0 0 141 79" fill="none" xmlns="http://www.w3.org/2000/svg">
<path d="M5.45925 52.5518C3.94735 52.9155 2.38413 53.2315 0.768066 53.4961C2.41456 53.1149 3.97707 52.8016 5.45925 52.5518C33.2526 45.8657 43.7043 23.0602 46.3153 7.38913C46.4428 4.68879 46.6927 2.18737 47.0158 0C46.9851 2.16751 46.7681 4.671 46.3153 7.38913C45.551 23.5688 49.1804 46.8904 67.8106 52.5933C69.2574 52.8319 70.5882 53.1426 71.7681 53.4961C70.3792 53.2795 69.0611 52.9761 67.8106 52.5933C56.5795 50.7411 38.3561 53.2301 29.4329 73.7183C28.8956 75.5949 28.2145 77.3888 27.4745 79C28.0619 77.119 28.7175 75.3608 29.4329 73.7183C32.6485 62.4882 30.7166 48.2953 5.45925 52.5518Z" fill="#FDC62D"/>
<path d="M79.7681 35.7175C117.5 25 116 17.5 121.5 0C121.5 16.4943 115.097 30.8577 138.038 35.3339C138.804 35.3834 139.537 35.5092 140.232 35.7175C139.472 35.5991 138.742 35.4711 138.038 35.3339C126.612 34.5958 107.966 50.879 100 64C105.428 52.1811 117.5 33 79.7681 35.7175Z" fill="#FDC62D"/>
</svg>
