<svg width="224" height="177" viewBox="0 0 224 177" fill="none" xmlns="http://www.w3.org/2000/svg">
<path d="M83.8724 56.4149C59.2058 34.4149 24.6724 -7.18512 83.8724 2.41488C143.072 12.0149 139.206 33.0816 129.873 42.4149C162.539 17.0816 226.673 -18.3851 221.873 42.4149C219.502 72.4389 207.605 84.8404 193.6 88.0969C201.295 95.9955 203.579 108.245 197.873 124.415C183.235 165.89 153.451 158.504 131.781 141.964C127.199 146.516 119.535 151.804 107.872 158C43.8724 192 -0.127625 172.415 31.8724 138.415C57.4724 111.215 77.2058 95.0816 83.8724 90.4149C57.8724 101.748 1.87207 93.2149 1.87207 56.4149C1.87207 19.6149 57.8724 48.4149 83.8724 56.4149Z" fill="#FDC62D" stroke="black" stroke-width="2"/>
</svg>
